# xmcd CD database file
#
# Track frame offsets:
#	150
#	16055
#	34925
#
# Disc length: 699 seconds
#
# Revision: 1
# Processed by: cddbd v1.5.2PL0 Copyright (c) Steve Scherf et al.
# Submitted via: CDex 1.70beta2
#
DISCID=1802b903
DTITLE=Liv - FAKE STAR
DYEAR=2004
DGENRE=JPop
TTITLE0=FAKE STAR
TTITLE1=Coquetyr Disease
TTITLE2=Real? A DREAM? Let's enjoy both. tokimeki☆
EXTD=YEAR: 2004
EXTT0=
EXTT1=
EXTT2=
PLAYORDER=
